# xmcd
#
# Track frame offsets: 
#        150
#        31654
#        52453
#        62623
#        80904
#        97328
#        116764
#        138805
#        161348
#        170996
#        182419
#        201323
#        217517
#        238786
#        248357
#        263920
#        274829
#        288224
#        308707
#        327246
#
# Disc length: 4474 seconds
#
# Revision: 2
# Processed by: cddbd v1.5.1PL2 Copyright (c) Steve Scherf et al.
# Submitted via: ExactAudioCopy v0.95b3
#
DISCID=23117814
DTITLE=Various Artist - @DJ Networx Vol. 24 CD2
DYEAR=2005
DGENRE=Techno Trance
TTITLE0=DJ Scot Project - L (Want Your Love)
TTITLE1=DJ Isaac - Backstage
TTITLE2=DJ Dean - Every Single Day
TTITLE3=The Real Booty Babes Vol.3 - Ready To Go (The Real Booty Babes
TTITLE3=Mix)
TTITLE4=DJ R. Gee - You're Beautiful To Me (Derb Club RMX)
TTITLE5=Observer vs. DJ Spacecase - This Is Your Night (Orig. Mix)
TTITLE6=Sol Ray and Dark By Design - Paradise (Orig. Mix)
TTITLE7=Hypercore 303 - Future Express (Orig. Mix)
TTITLE8=Direct Vision - In Rout To Mars (Global Cee Mix)
TTITLE9=The KGB's - Techno Gym (Handstyle Guru RMX)
TTITLE10=SOB Creators - Acid Way (ADO and Montorsi Mix)
TTITLE11=Technoboy - Ravers Rules (Prophet 2004 RMX)
TTITLE12=A-Lusion - Future Shokk
TTITLE13=Prophet vs. SMF - Another Track
TTITLE14=DJ Yves meets Chaps and Rolay - The Code
TTITLE15=The Rush Team - Liquid Adrenalin (FJ Project RMX)
TTITLE16=Enigmato - Trip To Hardstyland
TTITLE17=Hunter and Luks - Cum All Over
TTITLE18=Atomic Alliance - Atomic Bomb (The Elite RMX)
TTITLE19=Foorburner - Get Ready ! (Lars Palmas RMX)
EXTD=
EXTT0=
EXTT1=
EXTT2=
EXTT3=
EXTT4=
EXTT5=
EXTT6=
EXTT7=
EXTT8=
EXTT9=
EXTT10=
EXTT11=
EXTT12=
EXTT13=
EXTT14=
EXTT15=
EXTT16=
EXTT17=
EXTT18=
EXTT19=
PLAYORDER=
